<?xml version="1.0" encoding="UTF-8"?>
<svg width="311px" height="235px" viewBox="0 0 311 235" version="1.1" xmlns="http://www.w3.org/2000/svg" xmlns:xlink="http://www.w3.org/1999/xlink">
    <!-- Generator: Sketch 49 (51002) - http://www.bohemiancoding.com/sketch -->
    <title>massage-session_white</title>
    <desc>Created with Sketch.</desc>
    <defs></defs>
    <g id="Page-1" stroke="none" stroke-width="1" fill="none" fill-rule="evenodd">
        <g id="massage-session_white" fill="#FFFFFF" fill-rule="nonzero">
            <path d="M250.771,121.36 C270.184,121.36 285.921,137.096 285.921,156.514 C285.921,175.932 270.184,191.674 250.771,191.674 C231.353,191.674 215.611,175.932 215.611,156.514 C215.611,137.096 231.353,121.36 250.771,121.36 Z" id="Shape"></path>
            <path d="M192.09,0.662 C211.503,0.662 227.239,16.401 227.239,35.817 C227.239,55.235 211.503,70.974 192.09,70.974 C172.671,70.974 156.93,55.235 156.93,35.817 C156.93,16.401 172.671,0.662 192.09,0.662 Z" id="Shape"></path>
            <path d="M292.547,193.849 L257.479,205.426 C252.421,207.081 242.946,206.107 238.345,203.436 L211.183,187.664 C212.3,184.993 212.919,182.059 212.919,178.986 C212.919,166.57 202.865,156.515 190.46,156.515 L101.026,156.515 C97.918,156.515 40.484,156.515 40.225,156.515 L39.758,156.515 C27.345,156.515 17.293,166.575 17.293,178.986 C17.293,191.391 27.35,201.445 39.758,201.445 L179.004,201.445 L224.259,227.724 C231.683,232.035 241.585,234.33 251.101,234.33 C256.449,234.33 261.678,233.599 266.274,232.085 L301.337,220.508 C308.7,218.08 312.717,210.139 310.279,202.78 C307.857,195.423 299.91,191.421 292.547,193.849 Z" id="Shape"></path>
            <path d="M134.269,70.329 C131.253,73.246 106.15,99.187 103.377,152.636 L148.398,152.636 C149.036,143.576 150.528,135.863 152.379,129.353 L173.533,151.813 L188.564,151.813 C191.225,151.813 193.744,152.3 196.181,152.992 C197.908,149 197.227,144.196 194.058,140.82 L162.219,107.051 C164.098,104.233 165.49,102.664 165.799,102.339 C174.462,93.676 174.589,79.643 166.043,70.82 C157.404,61.91 143.186,61.687 134.269,70.329 Z" id="Shape"></path>
            <path d="M175.708,206.645 L37.859,206.645 C30.849,206.645 24.526,203.944 19.65,199.637 L11.23,199.637 C5.027,199.637 0,204.147 0,209.712 C0,215.267 5.027,219.786 11.23,219.786 L198.346,219.786 L175.708,206.645 Z" id="Shape"></path>
        </g>
    </g>
</svg>