<?xml version="1.0" encoding="utf-8" ?>
<!DOCTYPE svg PUBLIC "-//W3C//DTD SVG 1.1//EN" "http://www.w3.org/Graphics/SVG/1.1/DTD/svg11.dtd">
<svg version="1.1" xmlns="http://www.w3.org/2000/svg" xmlns:xlink="http://www.w3.org/1999/xlink" x="0px" y="0px" width="100%" height="54%" viewBox="0 0 125.577 68.155" enable-background="new 0 0 125.577 68.155" xml:space="preserve">
    <g>
        <path fill="#262626" d="M1.074,65.136v-1.443l25.419-34.824h-13.92c-1.707,0-2.801,0.07-3.282,0.209
			c-0.482,0.14-1.033,0.536-1.653,1.188c-1.397,1.49-2.623,3.864-3.678,7.123H2.19l0.652-10.662h32.077v1.723L9.64,62.994h10.475
			c3.073,0,5.198-0.139,6.378-0.418c1.179-0.28,2.172-0.885,2.98-1.816c1.458-1.521,2.886-4.144,4.283-7.868h1.862L34.5,65.136
			H1.074z" />
        <path fill="#262626" d="M70.042,39.763H43.272c-0.094,2.048-0.14,3.616-0.14,4.702
			c0,6.704,1.008,11.577,3.026,14.618c2.265,3.384,5.431,5.075,9.497,5.075c2.824,0,5.268-0.652,7.333-1.955
			c2.064-1.304,3.67-3.197,4.819-5.68h2.234c-0.963,2.98-2.793,5.37-5.494,7.169c-2.979,1.987-6.362,2.98-10.149,2.98
			c-4.687,0-8.83-1.567-12.43-4.702c-4.439-3.879-6.657-9.125-6.657-15.736c0-6.176,1.892-11.297,5.679-15.363
			c3.538-3.787,7.868-5.68,12.989-5.68c4.469,0,8.225,1.381,11.267,4.143C68.288,32.097,69.885,35.574,70.042,39.763 M61.848,37.854
			c0.093-0.745,0.14-1.396,0.14-1.956c0-2.606-0.761-4.701-2.281-6.284c-1.521-1.583-3.538-2.375-6.053-2.375
			c-3.445,0-6.145,1.413-8.1,4.237c-0.901,1.304-1.583,3.43-2.049,6.378H61.848z" />
        <path fill="#262626" d="M104.651,39.763H77.882c-0.094,2.048-0.14,3.616-0.14,4.702
			c0,6.704,1.008,11.577,3.026,14.618c2.265,3.384,5.431,5.075,9.497,5.075c2.824,0,5.268-0.652,7.333-1.955
			c2.064-1.304,3.67-3.197,4.819-5.68h2.234c-0.963,2.98-2.793,5.37-5.494,7.169c-2.979,1.987-6.362,2.98-10.149,2.98
			c-4.687,0-8.83-1.567-12.43-4.702c-4.439-3.879-6.657-9.125-6.657-15.736c0-6.176,1.892-11.297,5.679-15.363
			c3.538-3.787,7.868-5.68,12.989-5.68c4.469,0,8.225,1.381,11.267,4.143C102.897,32.097,104.495,35.574,104.651,39.763
			 M96.457,37.854c0.093-0.745,0.14-1.396,0.14-1.956c0-2.606-0.761-4.701-2.281-6.284c-1.521-1.583-3.538-2.375-6.053-2.375
			c-3.445,0-6.145,1.413-8.1,4.237c-0.901,1.304-1.583,3.43-2.049,6.378H96.457z" />
        <path fill="#262626" d="M116.402,0.656v51.306c0,3.817,0.03,6.161,0.093,7.03
			c0.062,0.869,0.248,1.582,0.559,2.141c0.745,1.272,2.421,1.894,5.027,1.862h1.164v2.142h-20.577v-2.142h1.303
			c2.608,0.032,4.284-0.589,5.028-1.862c0.31-0.527,0.489-1.156,0.536-1.885c0.046-0.729,0.085-3.158,0.116-7.286v-37.99
			c0-2.638-0.062-4.407-0.186-5.307c-0.125-0.9-0.419-1.645-0.884-2.235c-0.87-1.117-2.406-1.66-4.61-1.629h-0.652V2.658
			c1.832,0,4.004-0.209,6.518-0.629c2.515-0.418,4.377-0.876,5.587-1.373H116.402z" />
    </g>
</svg>
